<svg width="18" height="16" viewBox="0 0 18 16" fill="none" xmlns="http://www.w3.org/2000/svg">
<path d="M3.32809 15.8536C3.52335 16.0488 3.83993 16.0488 4.03519 15.8536L7.21717 12.6716C7.41244 12.4763 7.41244 12.1597 7.21717 11.9645C7.02191 11.7692 6.70533 11.7692 6.51007 11.9645L3.68164 14.7929L0.853214 11.9645C0.657952 11.7692 0.341369 11.7692 0.146107 11.9645C-0.0491553 12.1597 -0.0491553 12.4763 0.146107 12.6716L3.32809 15.8536ZM4.18164 0.499999C4.18164 0.223857 3.95778 -9.41604e-07 3.68164 -9.53674e-07C3.4055 -9.65745e-07 3.18164 0.223857 3.18164 0.499999L3.68164 0.499999L4.18164 0.499999ZM3.68164 15.5L4.18164 15.5L4.18164 0.499999L3.68164 0.499999L3.18164 0.499999L3.18164 15.5L3.68164 15.5Z" fill="#1B325F"/>
<path d="M13.1816 15.5C13.1816 15.7761 13.4055 16 13.6816 16C13.9578 16 14.1816 15.7761 14.1816 15.5L13.6816 15.5L13.1816 15.5ZM14.0352 0.146446C13.8399 -0.0488165 13.5234 -0.0488165 13.3281 0.146446L10.1461 3.32843C9.95085 3.52369 9.95085 3.84027 10.1461 4.03553C10.3414 4.23079 10.658 4.23079 10.8532 4.03553L13.6816 1.20711L16.5101 4.03553C16.7053 4.2308 17.0219 4.2308 17.2172 4.03553C17.4124 3.84027 17.4124 3.52369 17.2172 3.32843L14.0352 0.146446ZM13.6816 15.5L14.1816 15.5L14.1816 0.499999L13.6816 0.499999L13.1816 0.499999L13.1816 15.5L13.6816 15.5Z" fill="#1B325F"/>
</svg>
