<svg width="50" height="50" viewBox="0 0 50 50" fill="none" xmlns="http://www.w3.org/2000/svg">
<circle cx="25" cy="25" r="25" fill="#D9D9D9"/>
<path fill-rule="evenodd" clip-rule="evenodd" d="M39.4731 36.8125C37.3314 33.1098 34.0309 30.4548 30.1792 29.1962C34.0953 26.865 35.9712 22.2046 34.7623 17.8103C33.5533 13.4161 29.5575 10.3712 25 10.3712C20.4425 10.3712 16.4467 13.4161 15.2377 17.8103C14.0288 22.2046 15.9047 26.865 19.8208 29.1962C15.9691 30.4534 12.6686 33.1084 10.5269 36.8125C10.3131 37.1611 10.3053 37.5984 10.5066 37.9544C10.7079 38.3104 11.0866 38.5291 11.4955 38.5256C11.9045 38.5221 12.2794 38.2969 12.4745 37.9375C15.1239 33.3587 19.8067 30.625 25 30.625C30.1933 30.625 34.8761 33.3587 37.5255 37.9375C37.7206 38.2969 38.0955 38.5221 38.5045 38.5256C38.9134 38.5291 39.2921 38.3104 39.4934 37.9544C39.6947 37.5984 39.6869 37.1611 39.4731 36.8125ZM17.125 20.5C17.125 16.1508 20.6508 12.625 25 12.625C29.3492 12.625 32.875 16.1508 32.875 20.5C32.875 24.8492 29.3492 28.375 25 28.375C20.6527 28.3703 17.1297 24.8473 17.125 20.5Z" fill="#121217"/>
</svg>
