<svg width="185" height="37" viewBox="0 0 185 37" fill="none" xmlns="http://www.w3.org/2000/svg">
<path d="M17.5489 2.92705C17.8483 2.00574 19.1517 2.00574 19.4511 2.92705L22.429 12.0922C22.5629 12.5042 22.9468 12.7832 23.38 12.7832L33.0169 12.7832C33.9856 12.7832 34.3884 14.0228 33.6046 14.5922L25.8083 20.2566C25.4578 20.5112 25.3112 20.9626 25.445 21.3746L28.423 30.5398C28.7223 31.4611 27.6678 32.2272 26.8841 31.6578L19.0878 25.9934C18.7373 25.7388 18.2627 25.7388 17.9122 25.9934L10.1159 31.6578C9.33215 32.2272 8.27768 31.4611 8.57703 30.5398L11.555 21.3746C11.6888 20.9626 11.5422 20.5112 11.1917 20.2566L3.39535 14.5922C2.61164 14.0228 3.01441 12.7832 3.98314 12.7832L13.6199 12.7832C14.0532 12.7832 14.4371 12.5042 14.571 12.0922L17.5489 2.92705Z" fill="#FFFF20"/>
<path d="M54.5489 2.92705C54.8483 2.00574 56.1517 2.00574 56.4511 2.92705L59.429 12.0922C59.5629 12.5042 59.9468 12.7832 60.38 12.7832L70.0169 12.7832C70.9856 12.7832 71.3884 14.0228 70.6046 14.5922L62.8083 20.2566C62.4578 20.5112 62.3112 20.9626 62.445 21.3746L65.423 30.5398C65.7223 31.4611 64.6678 32.2272 63.8841 31.6578L56.0878 25.9934C55.7373 25.7388 55.2627 25.7388 54.9122 25.9934L47.1159 31.6578C46.3322 32.2272 45.2777 31.4611 45.577 30.5398L48.555 21.3746C48.6888 20.9626 48.5422 20.5112 48.1917 20.2566L40.3954 14.5922C39.6116 14.0228 40.0144 12.7832 40.9831 12.7832L50.6199 12.7832C51.0532 12.7832 51.4371 12.5042 51.571 12.0922L54.5489 2.92705Z" fill="#FFFF20"/>
<path d="M91.5489 2.92705C91.8483 2.00574 93.1517 2.00574 93.4511 2.92705L96.429 12.0922C96.5629 12.5042 96.9468 12.7832 97.38 12.7832L107.017 12.7832C107.986 12.7832 108.388 14.0228 107.605 14.5922L99.8083 20.2566C99.4578 20.5112 99.3112 20.9626 99.445 21.3746L102.423 30.5398C102.722 31.4611 101.668 32.2272 100.884 31.6578L93.0878 25.9934C92.7373 25.7388 92.2627 25.7388 91.9122 25.9934L84.1159 31.6578C83.3322 32.2272 82.2777 31.4611 82.577 30.5398L85.555 21.3746C85.6888 20.9626 85.5422 20.5112 85.1917 20.2566L77.3954 14.5922C76.6116 14.0228 77.0144 12.7832 77.9831 12.7832L87.6199 12.7832C88.0532 12.7832 88.4371 12.5042 88.571 12.0922L91.5489 2.92705Z" fill="#FFFF20"/>
<path d="M128.549 2.92705C128.848 2.00574 130.152 2.00574 130.451 2.92705L133.429 12.0922C133.563 12.5042 133.947 12.7832 134.38 12.7832L144.017 12.7832C144.986 12.7832 145.388 14.0228 144.605 14.5922L136.808 20.2566C136.458 20.5112 136.311 20.9626 136.445 21.3746L139.423 30.5398C139.722 31.4611 138.668 32.2272 137.884 31.6578L130.088 25.9934C129.737 25.7388 129.263 25.7388 128.912 25.9934L121.116 31.6578C120.332 32.2272 119.278 31.4611 119.577 30.5398L122.555 21.3746C122.689 20.9626 122.542 20.5112 122.192 20.2566L114.395 14.5922C113.612 14.0228 114.014 12.7832 114.983 12.7832L124.62 12.7832C125.053 12.7832 125.437 12.5042 125.571 12.0922L128.549 2.92705Z" fill="#FFFF20"/>
<path d="M165.549 2.92705C165.848 2.00574 167.152 2.00574 167.451 2.92705L170.429 12.0922C170.563 12.5042 170.947 12.7832 171.38 12.7832L181.017 12.7832C181.986 12.7832 182.388 14.0228 181.605 14.5922L173.808 20.2566C173.458 20.5112 173.311 20.9626 173.445 21.3746L176.423 30.5398C176.722 31.4611 175.668 32.2272 174.884 31.6578L167.088 25.9934C166.737 25.7388 166.263 25.7388 165.912 25.9934L158.116 31.6578C157.332 32.2272 156.278 31.4611 156.577 30.5398L159.555 21.3746C159.689 20.9626 159.542 20.5112 159.192 20.2566L151.395 14.5922C150.612 14.0228 151.014 12.7832 151.983 12.7832L161.62 12.7832C162.053 12.7832 162.437 12.5042 162.571 12.0922L165.549 2.92705Z" fill="#FFFF20"/>
</svg>
