<svg width="20" height="19" viewBox="0 0 20 19" fill="none" xmlns="http://www.w3.org/2000/svg">
<path d="M8.86144 0.690965C9.1608 -0.230345 10.4642 -0.230344 10.7636 0.690967L12.3944 5.71022C12.5283 6.12224 12.9122 6.4012 13.3455 6.4012H18.623C19.5917 6.4012 19.9945 7.64082 19.2108 8.21022L14.9412 11.3123C14.5907 11.5669 14.444 12.0183 14.5779 12.4303L16.2088 17.4496C16.5081 18.3709 15.4536 19.137 14.6699 18.5676L10.4003 15.4655C10.0498 15.2109 9.5752 15.2109 9.22471 15.4655L4.95508 18.5676C4.17137 19.137 3.11689 18.3709 3.41624 17.4496L5.0471 12.4303C5.18097 12.0183 5.03431 11.5669 4.68382 11.3123L0.41419 8.21022C-0.369523 7.64082 0.0332539 6.4012 1.00198 6.4012H6.27953C6.71276 6.4012 7.09671 6.12224 7.23059 5.71022L8.86144 0.690965Z" fill="#EEC276"/>
</svg>
