<svg width="60" height="60" viewBox="0 0 60 60" fill="none" xmlns="http://www.w3.org/2000/svg">
<circle cx="30" cy="30" r="30" fill="#E9ECEF"/>
<path d="M30 22V30H36M42 30C42 31.5759 41.6896 33.1363 41.0866 34.5922C40.4835 36.0481 39.5996 37.371 38.4853 38.4853C37.371 39.5996 36.0481 40.4835 34.5922 41.0866C33.1363 41.6896 31.5759 42 30 42C28.4241 42 26.8637 41.6896 25.4078 41.0866C23.9519 40.4835 22.629 39.5996 21.5147 38.4853C20.4004 37.371 19.5165 36.0481 18.9134 34.5922C18.3104 33.1363 18 31.5759 18 30C18 26.8174 19.2643 23.7652 21.5147 21.5147C23.7652 19.2643 26.8174 18 30 18C33.1826 18 36.2348 19.2643 38.4853 21.5147C40.7357 23.7652 42 26.8174 42 30Z" stroke="#495057" stroke-width="2" stroke-linecap="round" stroke-linejoin="round"/>
</svg>
