<svg width="60" height="60" viewBox="0 0 60 60" fill="none" xmlns="http://www.w3.org/2000/svg">
<circle cx="30" cy="30" r="30" fill="#E9ECEF"/>
<path d="M17 39C24.1141 38.9942 31.1973 39.9363 38.0627 41.8013C39.032 42.0653 40 41.3453 40 40.34V39M19 20V21C19 21.2652 18.8946 21.5196 18.7071 21.7071C18.5196 21.8946 18.2652 22 18 22H17M17 22V21.5C17 20.672 17.672 20 18.5 20H41V21C41 21.552 40.552 22 40 22H39M17 22V34M17 34V34.5C17 34.8978 17.158 35.2794 17.4393 35.5607C17.7206 35.842 18.1022 36 18.5 36H19M17 34H18C18.2652 34 18.5196 34.1054 18.7071 34.2929C18.8946 34.4804 19 34.7348 19 35V36M39 20H39.5C40.328 20 41 20.672 41 21.5V34.5C41 35.328 40.328 36 39.5 36H39M41 34H42C41.7348 34 41.4804 34.1054 41.2929 34.2929C41.1054 34.4804 41 34.7348 41 35V36H19M34 28C34 29.0609 33.5786 30.0783 32.8284 30.8284C32.0783 31.5786 31.0609 32 30 32C28.9391 32 27.9217 31.5786 27.1716 30.8284C26.4214 30.0783 26 29.0609 26 28C26 26.9391 26.4214 25.9217 27.1716 25.1716C27.9217 24.4214 28.9391 24 30 24C31.0609 24 32.0783 24.4214 32.8284 25.1716C33.5786 25.9217 34 26.9391 34 28Z" stroke="#495057" stroke-width="2" stroke-linecap="round" stroke-linejoin="round"/>
</svg>
