<svg width="60" height="60" viewBox="0 0 60 60" fill="none" xmlns="http://www.w3.org/2000/svg">
<circle cx="30" cy="30" r="30" fill="#E5E7EB"/>
<path d="M35 22C35 23.3261 34.4732 24.5979 33.5355 25.5355C32.5979 26.4732 31.3261 27 30 27C28.6739 27 27.4022 26.4732 26.4645 25.5355C25.5268 24.5979 25 23.3261 25 22C25 20.6739 25.5268 19.4021 26.4645 18.4645C27.4022 17.5268 28.6739 17 30 17C31.3261 17 32.5979 17.5268 33.5355 18.4645C34.4732 19.4021 35 20.6739 35 22ZM20.0013 40.824C20.0442 38.2005 21.1165 35.6989 22.9869 33.8587C24.8574 32.0186 27.3761 30.9873 30 30.9873C32.6239 30.9873 35.1427 32.0186 37.0131 33.8587C38.8836 35.6989 39.9558 38.2005 39.9987 40.824C36.8619 42.2624 33.4509 43.0047 30 43C26.432 43 23.0453 42.2213 20.0013 40.824Z" stroke="#2E3236" stroke-width="2" stroke-linecap="round" stroke-linejoin="round"/>
</svg>
