<svg width="245" height="31" viewBox="0 0 245 31" fill="none" xmlns="http://www.w3.org/2000/svg">
<path d="M1.28 2H24.72C25.0133 2 25.2667 2.10666 25.48 2.32C25.6933 2.53333 25.8 2.78667 25.8 3.08V9.52C25.8 9.81333 25.6933 10.0667 25.48 10.28C25.2667 10.4933 25.0133 10.6 24.72 10.6H18.08V28.92C18.08 29.2133 17.9733 29.4667 17.76 29.68C17.5467 29.8933 17.2933 30 17 30H9C8.70667 30 8.45333 29.8933 8.24 29.68C8.02667 29.4667 7.92 29.2133 7.92 28.92V10.6H1.28C0.986667 10.6 0.733333 10.4933 0.52 10.28C0.306667 10.0667 0.2 9.81333 0.2 9.52V3.08C0.2 2.78667 0.306667 2.53333 0.52 2.32C0.733333 2.10666 0.986667 2 1.28 2ZM37.7678 10.28V11.68C39.6345 10.0267 41.7145 9.2 44.0078 9.2H45.9278C46.2211 9.2 46.4745 9.30667 46.6878 9.52C46.9011 9.73333 47.0078 9.98667 47.0078 10.28V16.52C47.0078 16.8133 46.9011 17.0667 46.6878 17.28C46.4745 17.4933 46.2211 17.6 45.9278 17.6H40.7678C40.0478 17.6 39.4745 17.7733 39.0478 18.12C38.6478 18.44 38.4211 18.88 38.3678 19.44V28.92C38.3678 29.2133 38.2611 29.4667 38.0478 29.68C37.8345 29.8933 37.5811 30 37.2878 30H29.6878C29.3945 30 29.1411 29.8933 28.9278 29.68C28.7145 29.4667 28.6078 29.2133 28.6078 28.92V10.28C28.6078 9.98667 28.7145 9.73333 28.9278 9.52C29.1411 9.30667 29.3945 9.2 29.6878 9.2H36.6878C36.9811 9.2 37.2345 9.30667 37.4478 9.52C37.6611 9.73333 37.7678 9.98667 37.7678 10.28ZM49.6188 24.04C49.6188 20.44 52.5388 18.1333 58.3788 17.12L62.6188 16.44C62.6188 15.64 62.5521 15.1067 62.4188 14.84C62.2854 14.5467 61.9654 14.4 61.4588 14.4C60.9788 14.4 60.4988 14.6133 60.0188 15.04C59.5388 15.4667 59.0854 15.68 58.6588 15.68H51.8588C51.2721 15.68 50.9788 15.4 50.9788 14.84C50.9788 14.2533 51.1788 13.64 51.5788 13C52.0054 12.3333 52.6054 11.68 53.3788 11.04C54.1788 10.4 55.2854 9.86667 56.6988 9.44C58.1388 9.01333 59.7388 8.8 61.4988 8.8C65.0721 8.8 67.7521 9.54667 69.5388 11.04C71.3254 12.5333 72.2188 14.6667 72.2188 17.44V28.92C72.2188 29.2133 72.1121 29.4667 71.8988 29.68C71.6854 29.8933 71.4321 30 71.1388 30H64.1388C63.8454 30 63.5921 29.8933 63.3788 29.68C63.1654 29.4667 63.0588 29.2133 63.0588 28.92V27.8C61.8054 29.5333 59.9788 30.4 57.5788 30.4C55.1788 30.4 53.2454 29.8 51.7788 28.6C50.3388 27.3733 49.6188 25.8533 49.6188 24.04ZM60.1388 24.48C61.8721 24.48 62.7388 23.44 62.7388 21.36L60.3788 21.88C59.2054 22.1467 58.6188 22.64 58.6188 23.36C58.6188 23.68 58.7521 23.9467 59.0188 24.16C59.2854 24.3733 59.6588 24.48 60.1388 24.48ZM75.4 21.16V18C75.4 15.0133 76.2 12.7333 77.8 11.16C79.4 9.58667 81.3467 8.8 83.64 8.8C85.96 8.8 87.8133 9.42667 89.2 10.68V2.68C89.2 2.38667 89.3067 2.13333 89.52 1.92C89.7333 1.70667 89.9867 1.6 90.28 1.6H97.68C97.9733 1.6 98.2267 1.70667 98.44 1.92C98.6533 2.13333 98.76 2.38667 98.76 2.68V28.92C98.76 29.2133 98.6533 29.4667 98.44 29.68C98.2267 29.8933 97.9733 30 97.68 30H90.88C90.5867 30 90.3333 29.8933 90.12 29.68C89.9067 29.4667 89.8 29.2133 89.8 28.92V27.72C88.4133 29.5067 86.4533 30.4 83.92 30.4C81.3867 30.4 79.3333 29.6533 77.76 28.16C76.1867 26.64 75.4 24.3067 75.4 21.16ZM89.2 20.92V17.96C89.12 16.6267 88.4533 15.96 87.2 15.96C85.8667 15.96 85.2 16.7333 85.2 18.28V20.92C85.2 22.4667 85.8667 23.24 87.2 23.24C88.5333 23.24 89.2 22.4667 89.2 20.92ZM123.878 21.96H111.958V22.16C111.958 23.7867 112.478 24.6 113.518 24.6C113.811 24.6 114.171 24.3867 114.598 23.96C115.024 23.5333 115.491 23.32 115.998 23.32H123.558C124.144 23.32 124.438 23.6133 124.438 24.2C124.438 25.5067 123.451 26.8667 121.478 28.28C119.531 29.6933 116.878 30.4 113.518 30.4C110.184 30.4 107.451 29.5333 105.318 27.8C103.211 26.04 102.158 23.6267 102.158 20.56V18.64C102.158 15.7333 103.238 13.3733 105.398 11.56C107.558 9.72 110.384 8.8 113.878 8.8C117.398 8.8 120.118 9.82667 122.038 11.88C123.984 13.9333 124.958 16.5333 124.958 19.68V20.88C124.958 21.1733 124.851 21.4267 124.638 21.64C124.424 21.8533 124.171 21.96 123.878 21.96ZM115.158 16.8C115.158 15.2 114.624 14.4 113.558 14.4C112.491 14.4 111.958 15.2 111.958 16.8V16.96H115.158V16.8ZM128.224 10.8C128.224 8.08 129.344 5.86667 131.584 4.16C133.85 2.45333 136.81 1.6 140.464 1.6C144.144 1.6 147.144 2.49333 149.464 4.28C151.81 6.06667 152.984 7.93333 152.984 9.88C152.984 10.12 152.89 10.3333 152.704 10.52C152.544 10.68 152.357 10.76 152.144 10.76H144.144C143.53 10.76 142.97 10.5333 142.464 10.08C141.957 9.62667 141.277 9.4 140.424 9.4C139.144 9.4 138.504 9.77333 138.504 10.52C138.504 10.92 138.81 11.2533 139.424 11.52C140.064 11.7867 141.237 12.0267 142.944 12.24C146.917 12.7467 149.744 13.68 151.424 15.04C153.13 16.3733 153.984 18.4133 153.984 21.16C153.984 23.88 152.73 26.1067 150.224 27.84C147.744 29.5467 144.49 30.4 140.464 30.4C136.437 30.4 133.277 29.5733 130.984 27.92C128.69 26.2667 127.544 24.2533 127.544 21.88C127.544 21.64 127.624 21.44 127.784 21.28C127.97 21.0933 128.184 21 128.424 21H136.024C136.584 21 137.197 21.2667 137.864 21.8C138.557 22.3333 139.504 22.6 140.704 22.6C142.704 22.6 143.704 22.2267 143.704 21.48C143.704 21 143.344 20.64 142.624 20.4C141.904 20.1333 140.544 19.8667 138.544 19.6C131.664 18.6933 128.224 15.76 128.224 10.8ZM166.332 2.68V15.64L169.852 9.88C170.119 9.42667 170.505 9.2 171.012 9.2H179.092C179.359 9.2 179.585 9.29333 179.772 9.48C179.959 9.66667 180.052 9.88 180.052 10.12C180.052 10.36 179.985 10.5733 179.852 10.76L174.372 18.56L180.852 28.52C180.959 28.68 181.012 28.88 181.012 29.12C181.012 29.3333 180.919 29.5333 180.732 29.72C180.545 29.9067 180.319 30 180.052 30H171.652C171.119 30 170.705 29.7733 170.412 29.32L166.332 22.52V28.92C166.332 29.2133 166.225 29.4667 166.012 29.68C165.799 29.8933 165.545 30 165.252 30H158.252C157.959 30 157.705 29.8933 157.492 29.68C157.279 29.4667 157.172 29.2133 157.172 28.92V2.68C157.172 2.38667 157.279 2.13333 157.492 1.92C157.705 1.70667 157.959 1.6 158.252 1.6H165.252C165.545 1.6 165.799 1.70667 166.012 1.92C166.225 2.13333 166.332 2.38667 166.332 2.68ZM191.662 30H184.502C184.209 30 183.955 29.8933 183.742 29.68C183.529 29.4667 183.422 29.2133 183.422 28.92V10.28C183.422 9.98667 183.529 9.73333 183.742 9.52C183.955 9.30667 184.209 9.2 184.502 9.2H191.662C191.955 9.2 192.209 9.30667 192.422 9.52C192.635 9.73333 192.742 9.98667 192.742 10.28V28.92C192.742 29.2133 192.635 29.4667 192.422 29.68C192.209 29.8933 191.955 30 191.662 30ZM192.542 1.48V6.32C192.542 6.61333 192.435 6.86667 192.222 7.08C192.009 7.29333 191.755 7.4 191.462 7.4H184.702C184.409 7.4 184.155 7.29333 183.942 7.08C183.729 6.86667 183.622 6.61333 183.622 6.32V1.48C183.622 1.18666 183.729 0.933332 183.942 0.719998C184.155 0.506666 184.409 0.4 184.702 0.4H191.462C191.755 0.4 192.009 0.506666 192.222 0.719998C192.435 0.933332 192.542 1.18666 192.542 1.48ZM204.982 30H197.822C197.529 30 197.276 29.8933 197.062 29.68C196.849 29.4667 196.742 29.2133 196.742 28.92V2.68C196.742 2.38667 196.849 2.13333 197.062 1.92C197.276 1.70667 197.529 1.6 197.822 1.6H204.982C205.276 1.6 205.529 1.70667 205.742 1.92C205.956 2.13333 206.062 2.38667 206.062 2.68V28.92C206.062 29.2133 205.956 29.4667 205.742 29.68C205.529 29.8933 205.276 30 204.982 30ZM218.303 30H211.143C210.849 30 210.596 29.8933 210.383 29.68C210.169 29.4667 210.063 29.2133 210.063 28.92V2.68C210.063 2.38667 210.169 2.13333 210.383 1.92C210.596 1.70667 210.849 1.6 211.143 1.6H218.303C218.596 1.6 218.849 1.70667 219.063 1.92C219.276 2.13333 219.383 2.38667 219.383 2.68V28.92C219.383 29.2133 219.276 29.4667 219.063 29.68C218.849 29.8933 218.596 30 218.303 30ZM234.463 24.24C234.463 23.9733 234.396 23.76 234.263 23.6C233.916 23.1733 232.636 22.76 230.423 22.36C228.209 21.9333 226.409 21.2 225.023 20.16C223.663 19.0933 222.983 17.6133 222.983 15.72C222.983 13.8267 223.889 12.2 225.703 10.84C227.516 9.48 229.956 8.8 233.023 8.8C236.116 8.8 238.649 9.44 240.623 10.72C242.596 12 243.583 13.2933 243.583 14.6C243.583 14.8933 243.489 15.1467 243.303 15.36C243.143 15.5733 242.943 15.68 242.703 15.68H235.983C235.583 15.68 235.089 15.4667 234.503 15.04C233.916 14.6133 233.476 14.4 233.183 14.4C232.569 14.4 232.263 14.6133 232.263 15.04C232.263 15.3067 232.329 15.52 232.463 15.68C232.809 16.08 234.263 16.4667 236.823 16.84C239.383 17.2133 241.289 18.04 242.543 19.32C243.823 20.5733 244.463 21.9733 244.463 23.52C244.463 25.68 243.489 27.3733 241.543 28.6C239.596 29.8267 236.836 30.44 233.263 30.44C231.369 30.44 229.689 30.2267 228.223 29.8C226.756 29.3733 225.636 28.84 224.863 28.2C223.343 26.9467 222.583 25.7733 222.583 24.68C222.583 24.3867 222.676 24.1333 222.863 23.92C223.049 23.7067 223.276 23.6 223.543 23.6H230.503C230.876 23.6 231.356 23.8133 231.943 24.24C232.556 24.64 233.129 24.84 233.663 24.84C234.196 24.84 234.463 24.64 234.463 24.24Z" fill="#1B325F"/>
</svg>
